<?xml version="1.0" encoding="utf-8" standalone="no"?>
<!DOCTYPE svg PUBLIC "-//W3C//DTD SVG 1.1//EN"
  "http://www.w3.org/Graphics/SVG/1.1/DTD/svg11.dtd">
<!-- Created with matplotlib (http://matplotlib.org/) -->
<svg height="667pt" version="1.1" viewBox="0 0 1080 667" width="1080pt" xmlns="http://www.w3.org/2000/svg" xmlns:xlink="http://www.w3.org/1999/xlink">
 <defs>
  <style type="text/css">
*{stroke-linecap:butt;stroke-linejoin:round;}
  </style>
 </defs>
 <g id="figure_1">
  <g id="patch_1">
   <path d="
M0 667.44
L1080 667.44
L1080 0
L0 0
z
" style="fill:#ffffff;"/>
  </g>
  <g id="axes_1">
   <g id="patch_2">
    <path d="
M135 600.696
L972 600.696
L972 66.744
L135 66.744
z
" style="fill:#ffffff;"/>
   </g>
   <g id="line2d_1">
    <path clip-path="url(#p048f99bc99)" d="
M135 110.634
L136.674 113.365
L138.348 113.466
L140.022 112.705
L141.696 115.013
L143.37 118.202
L145.044 121.823
L146.718 125.905
L148.392 130.741
L151.74 146.783
L153.414 156.652
L155.088 167.189
L158.436 191.663
L160.11 204.977
L161.784 219.817
L165.132 245.809
L166.806 257.929
L170.154 276.844
L171.828 284.107
L173.502 289.879
L175.176 294.383
L176.85 297.335
L178.524 300.594
L180.198 302.283
L181.872 303.136
L183.546 303.269
L185.22 303.825
L186.894 302.144
L188.568 301.457
L191.916 296.341
L193.59 291.695
L196.938 280.728
L198.612 273.461
L200.286 264.848
L203.634 243.336
L206.982 218.307
L210.33 190.777
L212.004 177.032
L217.026 141.137
L218.7 132.828
L220.374 125.123
L223.722 115.604
L225.396 113.017
L227.07 111.69
L228.744 110.76
L230.418 110.231
L232.092 109.411
L233.766 109.9
L235.44 109.448
L237.114 109.132
L238.788 108.559
L242.136 108.581
L245.484 107.982
L247.158 108.582
L248.832 107.638
L250.506 109.431
L252.18 108.678
L253.854 107.712
L255.528 108.538
L257.202 107.667
L258.876 108.923
L260.55 108.35
L262.224 109.022
L263.898 108.359
L265.572 109.483
L267.246 109.182
L268.92 108.125
L270.594 109.262
L272.268 109.016
L273.942 109.036
L275.616 109.534
L277.29 110.234
L278.964 110.667
L280.638 110.556
L282.312 111.846
L283.986 112.072
L285.66 114.481
L289.008 122.906
L290.682 127.549
L292.356 135.318
L294.03 144.471
L295.704 155.018
L297.378 167.02
L300.726 193.094
L302.4 208.946
L305.748 237.635
L307.422 250.434
L309.096 262.29
L310.77 271.902
L312.444 280.23
L314.118 287.711
L315.792 293.118
L317.466 296.734
L319.14 300.688
L320.814 303.61
L322.488 304.919
L324.162 305.61
L325.836 307.462
L329.184 306.039
L330.858 304.844
L332.532 303.216
L334.206 300.312
L335.88 296.077
L337.554 291.44
L339.228 285.36
L340.902 278.157
L344.25 259.46
L345.924 248.857
L349.272 224.877
L354.294 192.548
L355.968 183.876
L357.642 178.466
L359.316 176.13
L360.99 178.258
L362.664 182.6
L364.338 190.837
L367.686 212.755
L369.36 227.405
L372.708 252.542
L374.382 263.784
L376.056 274.239
L377.73 282.79
L379.404 289.488
L381.078 295.022
L382.752 299.769
L384.426 302.865
L386.1 305.708
L387.774 307.136
L389.448 307.956
L391.122 307.716
L392.796 307.921
L394.47 307.868
L396.144 305.59
L397.818 303.808
L399.492 300.492
L401.166 297.429
L404.514 284.299
L406.188 276.81
L407.862 267.996
L412.884 232.923
L416.232 203.979
L419.58 175.265
L422.928 148.519
L424.602 138.173
L426.276 129.194
L427.95 122.648
L429.624 117.432
L431.298 114.298
L432.972 112.845
L434.646 110.776
L436.32 109.955
L437.994 108.021
L439.668 109.448
L441.342 108.666
L443.016 109.008
L444.69 107.83
L448.038 108.31
L449.712 107.912
L451.386 107.748
L453.06 108.125
L454.734 108.371
L456.408 109.019
L458.082 108.286
L459.756 109.599
L461.43 108.802
L463.104 109.601
L464.778 109.521
L466.452 109.3
L468.126 109.89
L471.474 113.44
L473.148 116.965
L474.822 121.974
L476.496 127.452
L478.17 135.677
L479.844 143.084
L481.518 154.422
L484.866 180.789
L486.54 194.593
L488.214 209.705
L489.888 223.523
L491.562 238.678
L493.236 252.241
L494.91 264.165
L496.584 274.247
L498.258 283.383
L501.606 295.896
L503.28 300.424
L506.628 305.357
L509.976 309.381
L511.65 310.412
L513.324 310.506
L514.998 309.863
L516.672 308.655
L520.02 303.117
L521.694 297.544
L523.368 291.572
L525.042 285.135
L526.716 276.922
L528.39 267.706
L531.738 242.912
L535.086 213.965
L538.434 185.476
L540.108 171.212
L541.782 158.119
L545.13 137.202
L546.804 127.953
L548.478 121.246
L550.152 115.955
L553.5 110.744
L555.174 109.751
L556.848 108.142
L558.522 107.988
L560.196 108.752
L561.87 106.974
L563.544 107.673
L565.218 107.483
L566.892 109.626
L568.566 106.903
L570.24 107.11
L571.914 107.134
L573.588 106.663
L575.262 106.843
L576.936 106.131
L578.61 105.819
L580.284 105.993
L581.958 106.635
L583.632 106.97
L585.306 107.002
L586.98 108.828
L588.654 108.579
L592.002 109.804
L593.676 109.141
L595.35 109.076
L597.024 108.06
L598.698 108.805
L600.372 108.516
L602.046 107.627
L603.72 108.087
L605.394 107.841
L607.068 107.395
L608.742 107.953
L610.416 107.333
L612.09 107.33
L613.764 106.21
L615.438 107.73
L618.786 107.533
L620.46 108.334
L622.134 108.001
L625.482 107.853
L627.156 106.671
L630.504 107.722
L632.178 107.451
L635.526 108.372
L637.2 108.358
L638.874 107.895
L640.548 107.722
L642.222 108.26
L643.896 108.287
L645.57 108.901
L647.244 110.038
L648.918 109.856
L650.592 111.516
L652.266 114.871
L653.94 117.511
L655.614 122.305
L657.288 127.497
L658.962 134.882
L660.636 143.937
L663.984 166.665
L669.006 211.261
L670.68 224.402
L672.354 238.913
L675.702 263.33
L677.376 273.212
L680.724 288.634
L682.398 294.074
L685.746 301.517
L687.42 304.304
L689.094 306.107
L690.768 307.024
L692.442 307.261
L695.79 305.887
L697.464 304.189
L699.138 301.355
L700.812 297.485
L702.486 294.011
L704.16 289.317
L705.834 281.638
L707.508 273.088
L709.182 263.547
L712.53 239.145
L714.204 225.051
L715.878 209.388
L719.226 181.686
L722.574 155.168
L724.248 144.06
L725.922 134.583
L727.596 126.263
L730.944 115.37
L732.618 112.714
L734.292 110.357
L735.966 107.622
L737.64 107.122
L739.314 107.978
L740.988 105.971
L742.662 106.964
L744.336 106.171
L746.01 106.85
L747.684 105.736
L749.358 105.501
L751.032 106.431
L752.706 105.297
L754.38 106.795
L756.054 106.729
L757.728 105.967
L759.402 106.07
L761.076 105.945
L762.75 106.594
L764.424 105.051
L766.098 106.614
L767.772 105.606
L769.446 106.216
L771.12 105.529
L772.794 105.431
L774.468 106.699
L776.142 106.081
L777.816 105.886
L779.49 107.406
L781.164 106.337
L782.838 105.499
L784.512 106.27
L786.186 105.379
L787.86 106.154
L789.534 107.154
L791.208 106.219
L792.882 106.606
L794.556 106.006
L796.23 105.854
L797.904 106.1
L799.578 105.457
L801.252 104.981
L802.926 105.195
L804.6 106.247
L806.274 105.716
L807.948 105.601
L809.622 106.367
L811.296 105.985
L812.97 105.926
L814.644 105.712
L816.318 106.483
L817.992 104.907
L819.666 107.246
L821.34 105.06
L823.014 105.412
L824.688 107.009
L826.362 106.653
L828.036 105.834
L831.384 105.903
L833.058 105.625
L834.732 104.829
L836.406 105.533
L838.08 106.91
L839.754 106.318
L841.428 106.061
L843.102 106.394
L844.776 106.366
L848.124 105.734
L849.798 106.711
L851.472 105.742
L853.146 106.336
L854.82 105.036
L856.494 106.133
L858.168 106.059
L859.842 105.354
L861.516 105.75
L863.19 104.853
L864.864 106.695
L866.538 105.129
L868.212 105.672
L869.886 106.338
L871.56 104.903
L873.234 105.283
L874.908 105.896
L876.582 105.95
L878.256 107.012
L879.93 106.516
L881.604 104.869
L883.278 105.951
L884.952 105.854
L886.626 106.213
L888.3 107.261
L889.974 107.067
L891.648 107.009
L893.322 105.734
L894.996 106.458
L896.67 107.696
L898.344 106.36
L900.018 107.476
L901.692 107.335
L903.366 106.948
L905.04 107.098
L906.714 107.4
L908.388 107.586
L910.062 107.399
L911.736 106.511
L913.41 107.384
L918.432 106.04
L920.106 106.237
L921.78 106.218
L923.454 106.782
L925.128 106.082
L926.802 106.127
L928.476 106.039
L930.15 106.543
L931.824 109.079
L933.498 107.018
L935.172 108.041
L936.846 107.112
L938.52 107.224
L940.194 107.915
L941.868 106.515
L943.542 107.505
L945.216 107.012
L946.89 107.258
L948.564 106.245
L950.238 106.552
L951.912 107.043
L953.586 106.802
L956.934 107.102
L958.608 106.42
L961.956 106.89
L963.63 106.367
L965.304 106.383
L966.978 106.137
L968.652 106.166
L970.326 105.837
L970.326 105.837" style="fill:none;stroke:#000000;stroke-dasharray:6.000000,6.000000;stroke-dashoffset:0.0;stroke-width:2;"/>
   </g>
   <g id="line2d_2">
    <path clip-path="url(#p048f99bc99)" d="
M135 130.773
L136.674 125.326
L138.348 112.762
L140.022 117.311
L141.696 119.233
L143.37 132.074
L145.044 142.338
L146.718 146.146
L148.392 163.362
L150.066 168.934
L151.74 188.472
L153.414 190.359
L155.088 212.333
L156.762 231.623
L158.436 241.819
L160.11 262.755
L161.784 285.134
L163.458 294.258
L165.132 308.549
L166.806 330.05
L168.48 332.394
L170.154 353.475
L171.828 370.156
L173.502 381.594
L175.176 390.263
L176.85 395.786
L178.524 405.39
L180.198 393.521
L181.872 399.415
L183.546 388.514
L185.22 400.605
L190.242 392.027
L191.916 387.149
L193.59 380.638
L195.264 370.848
L196.938 364.273
L198.612 355.366
L200.286 351.121
L201.96 337.832
L203.634 329.921
L205.308 308.62
L206.982 292.789
L208.656 281.817
L210.33 278.505
L212.004 272.412
L213.678 246.498
L215.352 233.002
L217.026 207.432
L218.7 187.814
L220.374 166.304
L222.048 155.531
L223.722 137.023
L225.396 143.162
L227.07 104.715
L228.744 109.755
L230.418 97.7457
L232.092 122.373
L233.766 115.785
L235.44 116.239
L237.114 110.298
L238.788 105.067
L240.462 101.195
L242.136 102.663
L243.81 94.6822
L245.484 102.949
L247.158 120.326
L248.832 89.7215
L250.506 103.521
L252.18 108.597
L253.854 81.3893
L255.528 101.328
L257.202 86.7527
L258.876 80.827
L260.55 114.914
L262.224 99.1432
L263.898 106.17
L265.572 98.7815
L267.246 104.827
L268.92 106.668
L270.594 109.966
L272.268 101.489
L273.942 121.689
L275.616 90.9248
L277.29 105.104
L278.964 116.822
L280.638 112.39
L282.312 94.8908
L283.986 91.1496
L285.66 93.4856
L287.334 84.3246
L289.008 85.6944
L290.682 145.116
L292.356 153.073
L294.03 157.829
L295.704 216.749
L297.378 246.67
L299.052 252.322
L300.726 268.879
L302.4 280.612
L304.074 276.787
L305.748 309.831
L307.422 306.955
L309.096 341.174
L310.77 359.259
L312.444 366.244
L314.118 379.315
L315.792 396.334
L317.466 397.083
L319.14 404.146
L320.814 410.428
L322.488 411.296
L324.162 415.45
L325.836 415.994
L327.51 417.243
L329.184 415.192
L330.858 410.635
L332.532 405.186
L334.206 401.994
L335.88 390.707
L337.554 392.275
L339.228 383.138
L340.902 369.546
L342.576 366.549
L344.25 343.402
L345.924 340.194
L347.598 331.529
L349.272 314.691
L350.946 325.233
L352.62 327.964
L354.294 322.12
L355.968 299.791
L357.642 286.918
L359.316 267.887
L360.99 277.999
L362.664 273.477
L364.338 286.498
L367.686 306.869
L369.36 322.095
L371.034 332.623
L372.708 348.025
L374.382 354.216
L376.056 366.671
L377.73 380.619
L379.404 385.256
L381.078 392.874
L384.426 403.73
L386.1 401.09
L387.774 407.067
L389.448 406.276
L391.122 401.081
L392.796 409.101
L394.47 396.598
L396.144 403.957
L397.818 396.732
L399.492 388.307
L401.166 371.221
L404.514 351.922
L406.188 318.773
L407.862 305.197
L409.536 306.513
L411.21 272.498
L412.884 293.716
L414.558 293.663
L416.232 279.558
L417.906 295.276
L419.58 287.058
L421.254 297.71
L422.928 280.829
L424.602 210.791
L426.276 153.495
L427.95 84.4411
L429.624 113.007
L431.298 89.0721
L432.972 67.6056
L434.646 76.7322
L436.32 80.0857
L437.994 86.3726
L439.668 105.126
L441.342 95.6261
L443.016 102.59
L444.69 99.0508
L446.364 121.981
L448.038 109.347
L449.712 90.7473
L451.386 77.6878
L453.06 91.8188
L454.734 95.8816
L456.408 120.201
L458.082 124.135
L459.756 96.8512
L461.43 111.073
L463.104 114.858
L464.778 110.982
L466.452 114.983
L468.126 96.4967
L469.8 103.858
L471.474 112.966
L473.148 113.598
L474.822 133.731
L476.496 141.307
L478.17 166.397
L479.844 179.071
L483.192 201.921
L484.866 241.194
L486.54 256.81
L488.214 284.322
L489.888 282.495
L491.562 303.597
L493.236 322.575
L494.91 333.554
L496.584 343.478
L498.258 350.761
L501.606 383.793
L503.28 374.252
L504.954 387.483
L506.628 389.922
L508.302 407.621
L509.976 404.444
L511.65 406.78
L513.324 410.916
L514.998 417.424
L516.672 406.34
L518.346 401.09
L520.02 395.418
L521.694 391.763
L523.368 391.723
L525.042 376.428
L528.39 353.439
L530.064 344.864
L531.738 335.558
L533.412 334.883
L536.76 306.603
L538.434 289.409
L540.108 273.484
L541.782 247.239
L543.456 248.869
L545.13 212.236
L546.804 152.283
L548.478 114.81
L550.152 102.466
L551.826 98.9751
L553.5 135.241
L555.174 90.1255
L556.848 82.8162
L558.522 99.6902
L560.196 112.871
L561.87 87.5578
L563.544 110.75
L565.218 137.896
L566.892 158.8
L568.566 85.9607
L570.24 96.929
L571.914 95.4764
L573.588 99.7556
L575.262 51.2288
L576.936 100.455
L578.61 67.1538
L580.284 64.1192
L581.958 103.469
L583.632 105.912
L585.306 88.2739
L586.98 92.563
L588.654 98.0898
L590.328 114.554
L592.002 113.232
L593.676 109.983
L595.35 103.756
L597.024 89.116
L598.698 92.3249
L602.046 105.318
L603.72 99.4301
L605.394 106.802
L607.068 90.6894
L608.742 103.027
L610.416 119.146
L612.09 99.8004
L613.764 100.746
L615.438 69.6842
L617.112 92.5392
L618.786 80.4318
L620.46 107.022
L622.134 95.7738
L623.808 78.8037
L625.482 57.267
L627.156 128.899
L628.83 79.1225
L630.504 109.84
L632.178 92.1325
L635.526 104.906
L637.2 87.9138
L638.874 83.5595
L640.548 125.375
L642.222 98.5853
L643.896 105.092
L645.57 78.5055
L647.244 112.888
L648.918 101.905
L650.592 83.013
L652.266 89.4782
L653.94 99.9615
L655.614 105.605
L657.288 115.275
L658.962 139.506
L660.636 188.876
L662.31 173.455
L663.984 219
L665.658 243.94
L667.332 253.68
L669.006 258.76
L670.68 280.293
L672.354 274.88
L674.028 292.056
L675.702 319.482
L677.376 332.594
L679.05 337.488
L680.724 362.518
L682.398 380.531
L684.072 387.634
L685.746 368.858
L687.42 392.352
L689.094 410.921
L690.768 397.582
L692.442 407.806
L694.116 400.619
L695.79 397.629
L697.464 401.403
L699.138 390.093
L700.812 389.713
L702.486 386.981
L704.16 377.822
L705.834 369.747
L707.508 360.351
L709.182 335.433
L710.856 286.131
L712.53 273.422
L714.204 259.464
L717.552 264.714
L719.226 248.101
L720.9 241.736
L722.574 218.161
L724.248 200.07
L725.922 183.415
L727.596 144.121
L729.27 140.683
L730.944 102.89
L732.618 102.277
L734.292 101.465
L735.966 94.9207
L737.64 82.8731
L739.314 95.018
L740.988 72.1019
L742.662 62.4872
L746.01 97.6306
L747.684 88.547
L749.358 80.4437
L751.032 74.9498
L752.706 71.7893
L754.38 114.483
L756.054 125.473
L759.402 81.4789
L761.076 89.8641
L762.75 101.735
L764.424 109.054
L766.098 101.052
L767.772 75.3801
L769.446 95.1859
L771.12 91.9511
L772.794 118.959
L774.468 81.2977
L776.142 79.1587
L777.816 72.2616
L779.49 88.5134
L781.164 123.067
L782.838 90.6
L784.512 72.5729
L786.186 62.6523
L787.86 95.3104
L789.534 70.7849
L791.208 96.5556
L792.882 66.2791
L794.556 85.5466
L796.23 100.438
L797.904 55.3689
L799.578 53.8365
L801.252 89.1439
L802.926 79.5292
L804.6 102.229
L806.274 127.796
L807.948 96.4799
L809.622 106.522
L811.296 91.9441
L812.97 76.0959
L816.318 18.2357
L817.992 17.843
L819.666 18.2241
L821.34 49.8612
L823.014 26.0566
L824.688 76.3339
L826.362 55.3479
L828.036 66.2291
L829.71 61.0949
L831.384 100.824
L834.732 48.0979
L836.406 69.1839
L838.08 55.4882
L839.754 85.4741
L841.428 71.5424
L843.102 83.8966
L844.776 58.5273
L846.45 82.4853
L848.124 67.256
L849.798 68.3699
L851.472 51.8472
L853.146 67.1977
L854.82 73.0101
L856.494 93.8766
L858.168 69.6357
L859.842 75.6783
L861.516 66.4521
L863.19 66.8875
L864.864 84.7032
L868.212 64.133
L869.886 102.429
L871.56 106.525
L873.234 40.5109
L874.908 35.6998
L876.582 23.4538
L878.256 49.7038
L879.721 -1
M880.186 -1
L881.604 38.9932
L883.278 47.094
L884.952 16.2275
L886.626 3.38855
L888.3 20.3731
L889.974 61.4231
L891.648 19.0527
L893.322 69.9717
L894.996 68.104
L896.67 106.295
L898.344 148.077
L900.018 137.766
L901.692 105.809
L903.366 99.9998
L905.04 104.154
L906.714 89.0668
L908.388 100.786
L910.062 88.9395
L911.736 91.26
L913.41 90.0193
L915.084 76.7762
L916.758 77.6926
L918.432 80.1523
L920.106 39.3711
L921.78 32.0528
L922.863 -1
M925.631 -1
L926.802 64.2061
L928.476 23.1398
L930.15 34.065
L931.824 143.028
L933.498 64.7265
L935.172 102.274
L936.846 75.5336
L938.52 129.168
L940.194 124.508
L941.868 57.5681
L943.542 104.655
L945.216 107.531
L946.89 102.749
L948.564 111.696
L950.238 76.4489
L951.912 81.9375
L953.586 188.614
L955.26 258.136
L956.934 300.84
L958.608 250.458
L960.282 136.757
L961.956 90.8427
L963.63 86.7483
L965.304 99.266
L966.978 121.929
L968.652 98.8158
L970.326 108.638
L970.326 108.638" style="fill:none;stroke:#00008b;stroke-linecap:square;stroke-width:2;"/>
   </g>
   <g id="matplotlib.axis_1">
    <g id="xtick_1">
     <g id="line2d_3">
      <defs>
       <path d="
M0 0
L0 -4" id="mf06237e818" style="stroke:#000000;"/>
      </defs>
      <g>
       <use style="stroke:#000000;" x="135.0" xlink:href="#mf06237e818" y="600.696"/>
      </g>
     </g>
     <g id="text_1">
      <!-- $0$ -->
      <defs>
       <path d="
M42 31.6406
C42 37.75 41.9062 48.125 37.7031 56.1094
C34 63.1094 28.0938 65.5938 22.9062 65.5938
C18.0938 65.5938 12 63.4062 8.20312 56.2031
C4.20312 48.7188 3.79688 39.4375 3.79688 31.6406
C3.79688 25.9531 3.90625 17.2812 7 9.67188
C11.2969 -0.609375 19 -2 22.9062 -2
C27.5 -2 34.5 -0.109375 38.5938 9.375
C41.5938 16.2812 42 24.3594 42 31.6406
M22.9062 -0.40625
C16.5 -0.40625 12.7031 5.07812 11.2969 12.6875
C10.2031 18.5625 10.2031 27.1562 10.2031 32.75
C10.2031 40.4375 10.2031 46.8281 11.5 52.9219
C13.4062 61.3906 19 64 22.9062 64
C27 64 32.2969 61.2969 34.2031 53.125
C35.5 47.4375 35.5938 40.7344 35.5938 32.75
C35.5938 26.25 35.5938 18.2656 34.4062 12.375
C32.2969 1.48438 26.4062 -0.40625 22.9062 -0.40625" id="CMR17-48"/>
      </defs>
      <g transform="translate(125.130858463 650.583920299)scale(0.43199999999999994 -0.43199999999999994)">
       <use transform="scale(0.9962640099626402)" xlink:href="#CMR17-48"/>
      </g>
     </g>
    </g>
    <g id="xtick_2">
     <g id="line2d_4">
      <g>
       <use style="stroke:#000000;" x="302.4" xlink:href="#mf06237e818" y="600.696"/>
      </g>
     </g>
     <g id="text_2">
      <!-- $100$ -->
      <defs>
       <path d="
M26.5938 63.3125
C26.5938 65.4062 26.5 65.5 25.0938 65.5
C21.2031 61.1875 15.2969 59.7969 9.70312 59.7969
C9.40625 59.7969 8.90625 59.7969 8.79688 59.5
C8.70312 59.2969 8.70312 59.0938 8.70312 57
C11.7969 57 17 57.5938 21 59.9844
L21 7.20312
C21 3.6875 20.7969 2.5 12.2031 2.5
L9.20312 2.5
L9.20312 0
C14 0 19 0 23.7969 0
C28.5938 0 33.5938 0 38.4062 0
L38.4062 2.5
L35.4062 2.5
C26.7969 2.5 26.5938 3.59375 26.5938 7.15625
z
" id="CMR17-49"/>
      </defs>
      <g transform="translate(272.792575389 650.583920299)scale(0.43199999999999994 -0.43199999999999994)">
       <use transform="scale(0.9962640099626402)" xlink:href="#CMR17-49"/>
       <use transform="translate(45.69047711706103 0.0)scale(0.9962640099626402)" xlink:href="#CMR17-48"/>
       <use transform="translate(91.38095423412206 0.0)scale(0.9962640099626402)" xlink:href="#CMR17-48"/>
      </g>
     </g>
    </g>
    <g id="xtick_3">
     <g id="line2d_5">
      <g>
       <use style="stroke:#000000;" x="469.8" xlink:href="#mf06237e818" y="600.696"/>
      </g>
     </g>
     <g id="text_3">
      <!-- $200$ -->
      <defs>
       <path d="
M41.7031 15.4531
L39.9062 15.4531
C38.9062 8.375 38.0938 7.17188 37.7031 6.5625
C37.2031 5.76562 30 5.76562 28.5938 5.76562
L9.40625 5.76562
C13 9.67188 20 16.75 28.5 24.9531
C34.5938 30.7344 41.7031 37.5312 41.7031 47.4219
C41.7031 59.2188 32.2969 66 21.7969 66
C10.7969 66 4.09375 56.3125 4.09375 47.3438
C4.09375 43.4375 7 42.9375 8.20312 42.9375
C9.20312 42.9375 12.2031 43.5469 12.2031 47.0312
C12.2031 50.1094 9.59375 51 8.20312 51
C7.59375 51 7 50.9062 6.59375 50.7031
C8.5 59.2188 14.2969 63.4062 20.4062 63.4062
C29.0938 63.4062 34.7969 56.5156 34.7969 47.4219
C34.7969 38.7344 29.7031 31.25 24 24.75
L4.09375 2.28125
L4.09375 0
L39.2969 0
z
" id="CMR17-50"/>
      </defs>
      <g transform="translate(440.192575389 650.583920299)scale(0.43199999999999994 -0.43199999999999994)">
       <use transform="scale(0.9962640099626402)" xlink:href="#CMR17-50"/>
       <use transform="translate(45.69047711706103 0.0)scale(0.9962640099626402)" xlink:href="#CMR17-48"/>
       <use transform="translate(91.38095423412206 0.0)scale(0.9962640099626402)" xlink:href="#CMR17-48"/>
      </g>
     </g>
    </g>
    <g id="xtick_4">
     <g id="line2d_6">
      <g>
       <use style="stroke:#000000;" x="637.2" xlink:href="#mf06237e818" y="600.696"/>
      </g>
     </g>
     <g id="text_4">
      <!-- $300$ -->
      <defs>
       <path d="
M22.0938 33.7031
C31 33.7031 34.9062 25.9688 34.9062 17.0312
C34.9062 5 28.5 0.390625 22.7031 0.390625
C17.4062 0.390625 8.79688 3.03125 6.09375 10.8281
C6.59375 10.625 7.09375 10.625 7.59375 10.625
C10 10.625 11.7969 12.2188 11.7969 14.8125
C11.7969 17.7031 9.59375 19 7.59375 19
C5.90625 19 3.29688 18.2031 3.29688 14.4688
C3.29688 5.23438 12.2969 -2 22.9062 -2
C34 -2 42.5 6.71875 42.5 16.9531
C42.5 26.6719 34.5 33.6875 25 34.7969
C32.5938 36.375 39.9062 43.0625 39.9062 52.0156
C39.9062 59.6875 32 65.2969 23 65.2969
C13.9062 65.2969 5.90625 59.8281 5.90625 52.0156
C5.90625 48.5938 8.5 48 9.79688 48
C11.9062 48 13.7031 49.2969 13.7031 51.8906
C13.7031 54.4688 11.9062 55.7656 9.79688 55.7656
C9.40625 55.7656 8.90625 55.7656 8.5 55.5625
C11.4062 61.8594 19.2969 63 22.7969 63
C26.2969 63 32.9062 61.3281 32.9062 51.875
C32.9062 49.1094 32.5 44.1875 29.0938 39.8438
C26.0938 36 22.7031 36 19.4062 35.5938
C18.9062 35.5938 16.5938 35.5938 16.2031 35.5938
C15.5 35.4844 15.0938 35.3906 15.0938 34.5938
C15.0938 33.8125 15.2031 33.7031 17.2031 33.7031
z
" id="CMR17-51"/>
      </defs>
      <g transform="translate(607.592575389 650.583920299)scale(0.43199999999999994 -0.43199999999999994)">
       <use transform="scale(0.9962640099626402)" xlink:href="#CMR17-51"/>
       <use transform="translate(45.69047711706103 0.0)scale(0.9962640099626402)" xlink:href="#CMR17-48"/>
       <use transform="translate(91.38095423412206 0.0)scale(0.9962640099626402)" xlink:href="#CMR17-48"/>
      </g>
     </g>
    </g>
    <g id="xtick_5">
     <g id="line2d_7">
      <g>
       <use style="stroke:#000000;" x="804.6" xlink:href="#mf06237e818" y="600.696"/>
      </g>
     </g>
     <g id="text_5">
      <!-- $400$ -->
      <defs>
       <path d="
M33.5938 64.3281
C33.5938 66.4062 33.5 66.5 31.7031 66.5
L2 19.5938
L2 17
L27.7969 17
L27.7969 7.14062
C27.7969 3.5 27.5938 2.5 20.5938 2.5
L18.7031 2.5
L18.7031 0
C21.9062 0 27.2969 0 30.7031 0
C34.0938 0 39.5 0 42.7031 0
L42.7031 2.5
L40.7969 2.5
C33.7969 2.5 33.5938 3.5 33.5938 7.14062
L33.5938 17
L43.7969 17
L43.7969 19.5938
L33.5938 19.5938
z

M28.0938 57.7656
L28.0938 19.5938
L4 19.5938
z
" id="CMR17-52"/>
      </defs>
      <g transform="translate(774.992575389 650.583920299)scale(0.43199999999999994 -0.43199999999999994)">
       <use transform="scale(0.9962640099626402)" xlink:href="#CMR17-52"/>
       <use transform="translate(45.69047711706103 0.0)scale(0.9962640099626402)" xlink:href="#CMR17-48"/>
       <use transform="translate(91.38095423412206 0.0)scale(0.9962640099626402)" xlink:href="#CMR17-48"/>
      </g>
     </g>
    </g>
    <g id="xtick_6">
     <g id="line2d_8">
      <g>
       <use style="stroke:#000000;" x="972.0" xlink:href="#mf06237e818" y="600.696"/>
      </g>
     </g>
     <g id="text_6">
      <!-- $500$ -->
      <defs>
       <path d="
M11.4062 57.6875
C12.4062 57.2812 16.5 56 20.7031 56
C30 56 35.0938 61.0156 38 63.9219
C38 64.7344 38 65.25 37.4062 65.25
C37.2969 65.25 37.0938 65.25 36.2969 64.8281
C32.7969 63.3125 28.7031 62.0781 23.7031 62.0781
C20.7031 62.0781 16.2031 62.5 11.2969 64.7344
C10.2031 65.25 10 65.25 9.90625 65.25
C9.40625 65.25 9.29688 65.1406 9.29688 63.1562
L9.29688 34.2812
C9.29688 32.5 9.29688 32 10.2969 32
C10.7969 32 11 32.2031 11.5 32.9062
C14.7031 37.4844 19.0938 39.4062 24.0938 39.4062
C27.5938 39.4062 35.0938 37.2188 35.0938 20.1406
C35.0938 16.9531 35.0938 11.1719 32.0938 6.57812
C29.5938 2.48438 25.7031 0.390625 21.4062 0.390625
C14.7969 0.390625 8.09375 5 6.29688 12.7188
C6.70312 12.6094 7.5 12.4219 7.90625 12.4219
C9.20312 12.4219 11.7031 13.125 11.7031 16.2188
C11.7031 18.9062 9.79688 20 7.90625 20
C5.59375 20 4.09375 18.5938 4.09375 15.7969
C4.09375 7.09375 11 -2 21.5938 -2
C31.9062 -2 41.7031 6.875 41.7031 19.75
C41.7031 31.7188 33.9062 41 24.2031 41
C19.0938 41 14.7969 39.0938 11.4062 35.4531
z
" id="CMR17-53"/>
      </defs>
      <g transform="translate(942.392575389 650.583920299)scale(0.43199999999999994 -0.43199999999999994)">
       <use transform="scale(0.9962640099626402)" xlink:href="#CMR17-53"/>
       <use transform="translate(45.69047711706103 0.0)scale(0.9962640099626402)" xlink:href="#CMR17-48"/>
       <use transform="translate(91.38095423412206 0.0)scale(0.9962640099626402)" xlink:href="#CMR17-48"/>
      </g>
     </g>
    </g>
    <g id="text_7">
     <!-- pixel -->
     <defs>
      <path d="
M22 -16.6094
C15.5938 -16.6094 15.2031 -16.2031 15.2031 -12.3281
L15.2031 6.28125
C18.0938 2.09375 22.2969 -0.59375 27.5938 -0.59375
C37.5938 -0.59375 47.7031 8.17188 47.7031 21.6875
C47.7031 34.2344 39 43.7812 28.7031 43.7812
C22.7031 43.7812 17.7969 40.5 15 36.5312
L15 43.7812
L3.09375 42.6875
L3.09375 40.1094
C9 40.1094 9.90625 39.5 9.90625 34.7344
L9.90625 -12.3281
C9.90625 -16.1094 9.5 -16.6094 3.09375 -16.6094
L3.09375 -19.1875
C5.5 -19 9.90625 -19 12.5 -19
C15.0938 -19 19.5938 -19 22 -19.1875
z

M15.2031 31.4375
C15.2031 32.8438 15.2031 34.9219 19.0938 38.6094
C19.5938 39.0156 23 42 28 42
C35.2969 42 41.2969 32.9375 41.2969 21.5938
C41.2969 10.25 34.9062 1 27 1
C23.4062 1 19.5 2.6875 16.5 7.375
C15.2031 9.5625 15.2031 10.1562 15.2031 11.75
z
" id="CMR17-112"/>
      <path d="
M15.2969 68.6875
L3.40625 67.5938
L3.40625 65
C9.29688 65 10.2031 64.4062 10.2031 59.6406
L10.2031 6.65625
C10.2031 2.875 9.79688 2.39062 3.40625 2.39062
L3.40625 -0.203125
C5.79688 0 10.2031 0 12.7031 0
C15.2969 0 19.7031 0 22.0938 -0.203125
L22.0938 2.39062
C15.7031 2.39062 15.2969 2.78125 15.2969 6.65625
z
" id="CMR17-108"/>
      <path d="
M15.5 61.0781
C15.5 63.2656 13.7031 65.1562 11.4062 65.1562
C9.20312 65.1562 7.29688 63.375 7.29688 61.0781
C7.29688 58.8906 9.09375 57 11.4062 57
C13.5938 57 15.5 58.7969 15.5 61.0781
M3.79688 42.2812
L3.79688 39.7031
C9.40625 39.7031 10.2031 39.0938 10.2031 34.3281
L10.2031 6.67188
C10.2031 2.875 9.79688 2.39062 3.40625 2.39062
L3.40625 -0.203125
C5.79688 0 10.0938 0 12.5938 0
C15 0 19.0938 0 21.4062 -0.203125
L21.4062 2.39062
C15.5 2.39062 15.2969 2.98438 15.2969 6.5625
L15.2969 43.375
z
" id="CMR17-105"/>
      <path d="
M38.0938 23
C38.5 23.4062 38.5 23.6094 38.5 24.625
C38.5 34.9688 33.0938 44 21.7031 44
C11.0938 44 2.70312 33.8906 2.70312 21.6094
C2.70312 8.60938 12.2031 -1 22.7969 -1
C34 -1 38.4062 9.46875 38.4062 11.5469
C38.4062 12.25 37.7969 12.25 37.5938 12.25
C36.9062 12.25 36.7969 12.0469 36.4062 10.875
C34.2031 4.14062 28.7031 0.796875 23.5 0.796875
C19.2031 0.796875 14.9062 3.17188 12.2031 7.5
C9.09375 12.5469 9.09375 18.375 9.09375 23
z

M9.20312 24.5
C9.90625 39.1406 17.5938 42.4062 21.5938 42.4062
C28.4062 42.4062 33 35.8906 33.0938 24.5
z
" id="CMR17-101"/>
      <path d="
M26 23.0938
C29 26.9844 32.4062 31.3594 35.2031 34.625
C38.5 38.4062 42.2969 40 46.7031 40
L46.7031 42.5938
C45 42.5938 41.5 42.5938 39.7031 42.5938
C37 42.5938 33.9062 42.5938 31.5938 42.6875
L31.5938 40.0938
C33 39.8906 33.7969 38.8906 33.7969 37.5
C33.7969 35.7031 32.7969 34.6094 32.2969 33.9219
L24.9062 24.5781
L16.0938 36.0312
C15.2031 37.125 15.2031 37.3125 15.2031 37.8125
C15.2031 39.0156 16.2031 40 17.9062 40
L17.9062 42.6875
C15.5 42.5938 11.2031 42.5938 8.70312 42.5938
C6 42.5938 2.79688 42.5938 0.59375 42.6875
L0.59375 40
C6 40 7.20312 39.5938 9.59375 36.6094
L21.0938 21.7969
C21.2969 21.5938 21.7969 21 21.7969 20.7031
C21.7969 20.2969 13.0938 9.67188 12 8.28125
C7.5 2.89062 2.79688 2.5 0.09375 2.5
L0.09375 0
C1.79688 0 5.29688 0 7.09375 0
C9.09375 0 13.5 0 15.2969 -0.09375
L15.2969 2.5
C14.7031 2.59375 13.0938 2.79688 13.0938 5.07812
C13.0938 6.875 13.9062 7.96875 14.7969 9.15625
L23.0938 19.3125
L31.7969 8
C32.5938 6.90625 33.7969 5.40625 33.7969 4.70312
C33.7969 3.29688 32.5938 2.5 31 2.5
L31 -0.09375
C33.4062 0 37.7031 0 40.2031 0
C42.9062 0 46.0938 0 48.2969 -0.09375
L48.2969 2.5
C43.2969 2.5 41.7969 2.6875 39.4062 5.78125
z
" id="CMR17-120"/>
     </defs>
     <g transform="translate(512.586150933 693.843203723)scale(0.43199999999999994 -0.43199999999999994)">
      <use transform="scale(0.9962640099626402)" xlink:href="#CMR17-112"/>
      <use transform="translate(50.89536978031601 0.0)scale(0.9962640099626402)" xlink:href="#CMR17-105"/>
      <use transform="translate(75.7664282621809 0.0)scale(0.9962640099626402)" xlink:href="#CMR17-120"/>
      <use transform="translate(124.05934410997821 0.0)scale(0.9962640099626402)" xlink:href="#CMR17-101"/>
      <use transform="translate(164.54500457269614 0.0)scale(0.9962640099626402)" xlink:href="#CMR17-108"/>
     </g>
    </g>
   </g>
   <g id="matplotlib.axis_2">
    <g id="ytick_1">
     <g id="line2d_9">
      <defs>
       <path d="
M0 0
L4 0" id="m82fbe672db" style="stroke:#000000;"/>
      </defs>
      <g>
       <use style="stroke:#000000;" x="135.0" xlink:href="#m82fbe672db" y="600.696"/>
      </g>
     </g>
     <g id="text_8">
      <!-- $0.0$ -->
      <defs>
       <path d="
M18.4062 4.79688
C18.4062 7.6875 16 9.67188 13.5938 9.67188
C10.7031 9.67188 8.70312 7.28125 8.70312 4.89062
C8.70312 2 11.0938 0 13.5 0
C16.4062 0 18.4062 2.39062 18.4062 4.79688" id="CMMI12-58"/>
      </defs>
      <g transform="translate(63.8174685506 611.454278587)scale(0.43199999999999994 -0.43199999999999994)">
       <use transform="scale(0.9962640099626402)" xlink:href="#CMR17-48"/>
       <use transform="translate(45.69047711706103 0.0)scale(0.9962640099626402)" xlink:href="#CMMI12-58"/>
       <use transform="translate(72.78765420688046 0.0)scale(0.9962640099626402)" xlink:href="#CMR17-48"/>
      </g>
     </g>
    </g>
    <g id="ytick_2">
     <g id="line2d_10">
      <g>
       <use style="stroke:#000000;" x="135.0" xlink:href="#m82fbe672db" y="503.613818182"/>
      </g>
     </g>
     <g id="text_9">
      <!-- $0.2$ -->
      <g transform="translate(63.8174685506 514.372096768)scale(0.43199999999999994 -0.43199999999999994)">
       <use transform="scale(0.9962640099626402)" xlink:href="#CMR17-48"/>
       <use transform="translate(45.69047711706103 0.0)scale(0.9962640099626402)" xlink:href="#CMMI12-58"/>
       <use transform="translate(72.78765420688046 0.0)scale(0.9962640099626402)" xlink:href="#CMR17-50"/>
      </g>
     </g>
    </g>
    <g id="ytick_3">
     <g id="line2d_11">
      <g>
       <use style="stroke:#000000;" x="135.0" xlink:href="#m82fbe672db" y="406.531636364"/>
      </g>
     </g>
     <g id="text_10">
      <!-- $0.4$ -->
      <g transform="translate(63.8174685506 417.28991495)scale(0.43199999999999994 -0.43199999999999994)">
       <use transform="scale(0.9962640099626402)" xlink:href="#CMR17-48"/>
       <use transform="translate(45.69047711706103 0.0)scale(0.9962640099626402)" xlink:href="#CMMI12-58"/>
       <use transform="translate(72.78765420688046 0.0)scale(0.9962640099626402)" xlink:href="#CMR17-52"/>
      </g>
     </g>
    </g>
    <g id="ytick_4">
     <g id="line2d_12">
      <g>
       <use style="stroke:#000000;" x="135.0" xlink:href="#m82fbe672db" y="309.449454545"/>
      </g>
     </g>
     <g id="text_11">
      <!-- $0.6$ -->
      <defs>
       <path d="
M10.5938 34
C10.5938 57.6562 21.7969 63 28.2969 63
C30.4062 63 35.5 62.6406 37.5 59
C35.9062 59 32.9062 59 32.9062 55.5156
C32.9062 52.8281 35.0938 51.9219 36.5 51.9219
C37.4062 51.9219 40.0938 52.3125 40.0938 55.625
C40.0938 61.7812 35.0938 65.2969 28.2031 65.2969
C16.2969 65.2969 3.79688 52.9688 3.79688 31
C3.79688 3.95312 15.0938 -2 23.0938 -2
C32.7969 -2 42 6.67188 42 20.0469
C42 32.5156 33.9062 41.5938 23.7031 41.5938
C17.5938 41.5938 13.0938 37.6094 10.5938 30.625
z

M23.0938 0.390625
C10.7969 0.390625 10.7969 18.75 10.7969 22.4375
C10.7969 29.625 14.2031 40 23.5 40
C25.2031 40 30.0938 40 33.4062 33.125
C35.2031 29.2188 35.2031 25.1406 35.2031 20.1406
C35.2031 14.75 35.2031 10.7812 33.0938 6.78125
C30.9062 2.67188 27.7031 0.390625 23.0938 0.390625" id="CMR17-54"/>
      </defs>
      <g transform="translate(63.8174685506 320.207733132)scale(0.43199999999999994 -0.43199999999999994)">
       <use transform="scale(0.9962640099626402)" xlink:href="#CMR17-48"/>
       <use transform="translate(45.69047711706103 0.0)scale(0.9962640099626402)" xlink:href="#CMMI12-58"/>
       <use transform="translate(72.78765420688046 0.0)scale(0.9962640099626402)" xlink:href="#CMR17-54"/>
      </g>
     </g>
    </g>
    <g id="ytick_5">
     <g id="line2d_13">
      <g>
       <use style="stroke:#000000;" x="135.0" xlink:href="#m82fbe672db" y="212.367272727"/>
      </g>
     </g>
     <g id="text_12">
      <!-- $0.8$ -->
      <defs>
       <path d="
M27.2031 35.375
C33.5 38.5625 39.9062 43.3281 39.9062 50.9844
C39.9062 60.0312 31.0938 65.2969 23 65.2969
C13.9062 65.2969 5.90625 58.7344 5.90625 49.6875
C5.90625 47.2031 6.5 42.9219 10.4062 39.1406
C11.4062 38.1562 15.5938 35.1719 18.2969 33.2812
C13.7969 30.9844 3.29688 25.5312 3.29688 14.5938
C3.29688 4.35938 13.0938 -2 22.7969 -2
C33.5 -2 42.5 5.65625 42.5 15.7969
C42.5 24.8438 36.4062 29.0312 32.4062 31.7031
z

M14.0938 44.125
C13.2969 44.625 9.29688 47.7031 9.29688 52.375
C9.29688 58.4375 15.5938 63 22.7969 63
C30.7031 63 36.5 57.4531 36.5 50.9844
C36.5 41.7344 26.0938 36.4688 25.5938 36.4688
C25.5 36.4688 25.4062 36.4688 24.5938 37.0781
z

M32.5 23.7344
C34 22.6406 38.7969 19.375 38.7969 13.2969
C38.7969 5.95312 31.4062 0.390625 23 0.390625
C13.9062 0.390625 7 6.84375 7 14.6875
C7 22.5469 13.0938 29.0938 20 32.1875
z
" id="CMR17-56"/>
      </defs>
      <g transform="translate(63.8174685506 223.125551314)scale(0.43199999999999994 -0.43199999999999994)">
       <use transform="scale(0.9962640099626402)" xlink:href="#CMR17-48"/>
       <use transform="translate(45.69047711706103 0.0)scale(0.9962640099626402)" xlink:href="#CMMI12-58"/>
       <use transform="translate(72.78765420688046 0.0)scale(0.9962640099626402)" xlink:href="#CMR17-56"/>
      </g>
     </g>
    </g>
    <g id="ytick_6">
     <g id="line2d_14">
      <g>
       <use style="stroke:#000000;" x="135.0" xlink:href="#m82fbe672db" y="115.285090909"/>
      </g>
     </g>
     <g id="text_13">
      <!-- $1.0$ -->
      <g transform="translate(63.8174685506 126.043369496)scale(0.43199999999999994 -0.43199999999999994)">
       <use transform="scale(0.9962640099626402)" xlink:href="#CMR17-49"/>
       <use transform="translate(45.69047711706103 0.0)scale(0.9962640099626402)" xlink:href="#CMMI12-58"/>
       <use transform="translate(72.78765420688046 0.0)scale(0.9962640099626402)" xlink:href="#CMR17-48"/>
      </g>
     </g>
    </g>
    <g id="text_14">
     <!-- A, B -->
     <defs>
      <path d="
M36.2969 68.4062
C35.7969 69.7031 35.5938 70 34.5938 70
C33.5938 70 33.4062 69.7031 32.9062 68.4062
L11.7031 8.84375
C9.79688 3.48438 5.79688 2.39062 2.29688 2.39062
L2.29688 -0.203125
C4.09375 0 8.09375 0 10 0
C12.5 0 16.5 0 18.9062 -0.203125
L18.9062 2.39062
C14.2031 2.39062 13.5 5.64062 13.5 6.85938
C13.5 7.76562 13.7031 8.28125 13.9062 8.89062
L19.2031 24
L45.4062 24
L51.4062 6.90625
C51.9062 5.70312 51.9062 5.5 51.9062 5.10938
C51.9062 2.39062 47.5938 2.39062 45.7031 2.39062
L45.7031 0
C48.5938 0 53.7969 0 56.9062 0
C59.5 0 64.5 0 66.9062 -0.203125
L66.9062 2.39062
C61.5938 2.39062 59.7969 2.39062 58.5 6.04688
z

M32.2969 60.5312
L44.5 26.5938
L20.0938 26.5938
z
" id="CMR17-65"/>
      <path d="
M5.20312 68
L5.20312 65.4062
C12.0938 65.4062 13.2031 65.4062 13.2031 60.9375
L13.2031 7.0625
C13.2031 2.59375 12.0938 2.59375 5.20312 2.59375
L5.20312 0
L39.5938 0
C52.4062 0 60.7031 9.10938 60.7031 18.1875
C60.7031 27.2031 52.5 34.8906 41.7969 34.8906
C51.4062 36.8125 58.0938 43.2969 58.0938 51
C58.0938 59.4062 49.9062 68 37 68
z

M19.5 36
L19.5 61.5156
C19.5 64.9219 19.7031 65.4062 23.7031 65.4062
L36.5 65.4062
C46.4062 65.4062 50.7969 57.4062 50.7969 51.2031
C50.7969 43.6094 44.7031 36 33.9062 36
z

M23.7031 2.59375
C19.7031 2.59375 19.5 3.07812 19.5 6.45312
L19.5 34.4062
L38 34.4062
C48.2969 34.4062 53.2969 25.3906 53.2969 18.1562
C53.2969 10.9219 47.5938 2.59375 36.7031 2.59375
z
" id="CMR17-66"/>
      <path d="
M15.7969 1.59375
C16 0.6875 16 0.375 16 -1.21875
C16 -7.25 14 -12.7656 9.79688 -17.7969
C9.29688 -18.2812 9.29688 -18.4844 9.29688 -18.7031
C9.29688 -19.0938 9.70312 -19.5 10.0938 -19.5
C10.7031 -19.5 17.5938 -12.4844 17.5938 -1.35938
C17.5938 1.9375 17.2031 8.15625 12.5 8.15625
C10.2969 8.15625 8.40625 6.67188 8.40625 4.07812
C8.40625 1.5 10.2969 0 12.5 0
C13.7031 0 15 0.5 15.7969 1.59375" id="CMR17-44"/>
     </defs>
     <g transform="translate(50.446105425 374.588950603)rotate(-90.0)scale(0.43199999999999994 -0.43199999999999994)">
      <use transform="scale(0.9962640099626402)" xlink:href="#CMR17-65"/>
      <use transform="translate(69.0724298042497 0.0)scale(0.9962640099626402)" xlink:href="#CMR17-44"/>
      <use transform="translate(124.01945463301682 0.0)scale(0.9962640099626402)" xlink:href="#CMR17-66"/>
     </g>
    </g>
   </g>
   <g id="patch_3">
    <path d="
M972 600.696
L972 66.744" style="fill:none;stroke:#000000;stroke-width:2.0;"/>
   </g>
   <g id="patch_4">
    <path d="
M135 600.696
L972 600.696" style="fill:none;stroke:#000000;stroke-width:2.0;"/>
   </g>
   <g id="patch_5">
    <path d="
M135 66.744
L972 66.744" style="fill:none;stroke:#000000;stroke-width:2.0;"/>
   </g>
   <g id="patch_6">
    <path d="
M135 600.696
L135 66.744" style="fill:none;stroke:#000000;stroke-width:2.0;"/>
   </g>
   <g id="legend_1">
    <g id="patch_7">
     <path d="
M642.89 582.696
L946.8 582.696
Q954 582.696 954 575.496
L954 478.744
Q954 471.544 946.8 471.544
L642.89 471.544
Q635.69 471.544 635.69 478.744
L635.69 575.496
Q635.69 582.696 642.89 582.696
z
" style="fill:#ffffff;"/>
    </g>
    <g id="line2d_15">
     <path d="
M660.89 498.544
L711.29 498.544" style="fill:none;stroke:#000000;stroke-dasharray:6.000000,6.000000;stroke-dashoffset:0.0;stroke-width:2;"/>
    </g>
    <g id="line2d_16"/>
    <g id="text_15">
     <!-- absorption $A$ -->
     <defs>
      <path d="
M41.5 30.2031
C41.5 35.2969 40.5 43.5938 28.7031 43.5938
C20.7969 43.5938 16.7031 37.5 15.2031 33.5
L15.0938 33.5
L15.0938 43.5938
L3.29688 42.5
L3.29688 39.9062
C9.20312 39.9062 10.0938 39.2969 10.0938 34.5
L10.0938 6.6875
C10.0938 2.875 9.70312 2.39062 3.29688 2.39062
L3.29688 -0.203125
C5.70312 0 10.0938 0 12.7031 0
C15.2969 0 19.7969 0 22.2031 -0.203125
L22.2031 2.39062
C15.7969 2.39062 15.4062 2.78125 15.4062 6.6875
L15.4062 25.9062
C15.4062 35.1094 21 42 28 42
C35.4062 42 36.2031 35.4062 36.2031 30.5938
L36.2031 6.6875
C36.2031 2.875 35.7969 2.39062 29.4062 2.39062
L29.4062 -0.203125
C31.7969 0 36.2031 0 38.7969 0
C41.4062 0 45.9062 0 48.2969 -0.203125
L48.2969 2.39062
C41.9062 2.39062 41.5 2.78125 41.5 6.6875
z
" id="CMR17-110"/>
      <path d="
M43.0938 21.1875
C43.0938 34 33.7969 44 22.9062 44
C12 44 2.70312 34 2.70312 21.1875
C2.70312 8.60938 12 -1 22.9062 -1
C33.7969 -1 43.0938 8.60938 43.0938 21.1875
M22.9062 0.796875
C18.2031 0.796875 14.2031 3.59375 11.9062 7.5
C9.40625 11.9844 9.09375 17.5938 9.09375 22
C9.09375 26.2031 9.29688 31.4062 11.9062 35.9062
C13.9062 39.2031 17.7969 42.4062 22.9062 42.4062
C27.4062 42.4062 31.2031 39.9062 33.5938 36.4062
C36.7031 31.7031 36.7031 25.1094 36.7031 22
C36.7031 18.0938 36.5 12.1094 33.7969 7.29688
C31 2.70312 26.7031 0.796875 22.9062 0.796875" id="CMR17-111"/>
      <path d="
M15 68.6875
L3.09375 67.5938
L3.09375 65
C9 65 9.90625 64.4062 9.90625 59.6406
L9.90625 -0.203125
L11.7031 -0.203125
L14.5938 6.89062
C17.5 2.20312 21.7969 -1 27.5938 -1
C37.5938 -1 47.7031 7.8125 47.7031 21.4062
C47.7031 34.1875 38.7031 43.5938 28.5938 43.5938
C22.4062 43.5938 18 40.2969 15 36.4062
z

M15.2031 31.3125
C15.2031 33.0938 15.2031 33.4062 16.5938 35.5
C20.5 41.5156 26.0938 42 28 42
C31 42 41.2969 40.3906 41.2969 21.5
C41.2969 1.6875 29.5 0.59375 27.0938 0.59375
C24 0.59375 19.5 1.78125 16.2969 7.59375
C15.2031 9.5 15.2031 9.70312 15.2031 11.4844
z
" id="CMR17-98"/>
      <path d="
M30.9062 42.1094
C30.9062 43.9062 30.7969 44 30.2031 44
C29.7969 44 29.7031 43.9062 28.5 42.4219
C28.2031 42.0156 27.2969 41.0156 27 40.625
C23.7969 44 19.2969 44 17.5938 44
C6.5 44 2.5 38.1719 2.5 32.375
C2.5 23.3438 12.7031 21.25 15.5938 20.6406
C21.9062 19.3438 24.0938 18.9375 26.2031 17.125
C27.5 15.9375 29.7031 13.7344 29.7031 10.125
C29.7031 5.90625 27.2969 0.5 18.0938 0.5
C9.40625 0.5 6.29688 7.0625 4.5 15.8281
C4.20312 17.2188 4.20312 17.3281 3.40625 17.3281
C2.59375 17.3281 2.5 17.2188 2.5 15.2344
L2.5 0.890625
C2.5 -0.890625 2.59375 -1 3.20312 -1
C3.70312 -1 3.79688 -0.890625 4.29688 -0.09375
C4.90625 0.796875 6.40625 3.1875 7 4.1875
C9 1.54688 12.5 -1 18.0938 -1
C28 -1 33.2969 4.40625 33.2969 12.2344
C33.2969 17.3438 30.5938 20.0625 29.2969 21.25
C26.2969 24.375 22.7969 25.0625 18.5938 25.8594
C13.0938 27.0781 6.09375 28.4688 6.09375 34.5938
C6.09375 37.1875 7.5 42.7188 17.5938 42.7188
C28.2969 42.7188 28.9062 32.75 29.0938 29.5625
C29.2031 29.0781 29.7031 28.9688 30 28.9688
C30.9062 28.9688 30.9062 29.2812 30.9062 30.9688
z
" id="CMR17-115"/>
      <path d="
M15.0938 40
L29.0938 40
L29.0938 42.5781
L15.0938 42.5781
L15.0938 61
L13.2969 61
C13.0938 50.7031 9.59375 41.6875 1.09375 41.6875
L1.09375 40
L9.79688 40
L9.79688 12.0469
C9.79688 10.1562 9.79688 -1 21.4062 -1
C27.2969 -1 30.7031 4.78125 30.7031 12.1406
L30.7031 17.8125
L28.9062 17.8125
L28.9062 12.2344
C28.9062 5.375 26.2031 0.796875 22 0.796875
C19.0938 0.796875 15.0938 2.78125 15.0938 11.8438
z
" id="CMR17-116"/>
      <path d="
M15 23.3906
C15 33 19.0938 42 26.5938 42
C27.2969 42 28 41.9062 28.7031 41.5938
C28.7031 41.5938 26.5 40.8906 26.5 38.3125
C26.5 35.9062 28.4062 34.9062 29.9062 34.9062
C31.0938 34.9062 33.2969 35.6094 33.2969 38.4062
C33.2969 41.6094 30.0938 43.5938 26.7031 43.5938
C19.0938 43.5938 15.7969 36.2031 14.7969 32.7031
L14.7031 32.7031
L14.7031 43.5938
L3.09375 42.5
L3.09375 39.9062
C9 39.9062 9.90625 39.2969 9.90625 34.5
L9.90625 6.6875
C9.90625 2.875 9.5 2.39062 3.09375 2.39062
L3.09375 -0.203125
C5.5 0 10.0938 0 12.7031 0
C15.5938 0 20.7031 0 23.4062 -0.203125
L23.4062 2.39062
C16.2031 2.39062 15 2.39062 15 6.875
z
" id="CMR17-114"/>
      <path d="
M17 10.7969
C13.5 4.90625 10.0938 2.90625 5.29688 2.90625
C4.20312 2.90625 3.40625 2.90625 3.40625 1.04688
C3.40625 0.421875 3.90625 0 4.59375 0
C6.40625 0 10.9062 0 12.7031 0
C15.5938 0 18.7969 0 21.5938 0
C22.2031 0 23.4062 0 23.4062 1.90625
C23.4062 2.8125 22.5938 2.90625 22 2.90625
C19.7031 3.10938 17.7969 3.89062 17.7969 6.21875
C17.7969 7.59375 18.4062 8.67188 19.7031 10.8281
L27.2969 23.1094
L52.7969 23.1094
C52.9062 22.2344 52.9062 21.4375 53 20.5469
C53.2969 17.9844 54.5 7.73438 54.5 5.875
C54.5 2.90625 49.4062 2.90625 47.7969 2.90625
C46.7031 2.90625 45.5938 2.90625 45.5938 1.09375
C45.5938 0 46.5 0 47.0938 0
C48.7969 0 50.7969 0 52.5 0
L58.2031 0
C64.2969 0 68.7031 0 68.7969 0
C69.5 0 70.5938 0 70.5938 1.90625
C70.5938 2.90625 69.7031 2.90625 68.2031 2.90625
C62.7031 2.90625 62.5938 3.8125 62.2969 6.78125
L56.2031 68.8125
C56 70.7969 55.5938 71 54.5 71
C53.5 71 52.9062 70.7969 52 69.2969
z

M29 26
L49.0938 59.6719
L52.5 26
z
" id="CMMI12-65"/>
      <path d="
M36 25.8281
C36 32.375 36 35.8438 31.7969 39.7344
C28.0938 43 23.7969 44 20.4062 44
C12.5 44 6.79688 37.6094 6.79688 30.7969
C6.79688 27 9.79688 27 10.4062 27
C11.7031 27 14 27.7812 14 30.5312
C14 33 12.0938 34.0781 10.4062 34.0781
C10 34.0781 9.5 33.9688 9.20312 33.875
C11.2969 40.5 16.7031 42.4062 20.2031 42.4062
C25.2031 42.4062 30.7031 37.9531 30.7031 29.4531
L30.7031 25
C24.7969 25 17.7031 24.2031 12.0938 21.2031
C5.79688 17.7031 4 12.7031 4 8.90625
C4 1.20312 13 -1 18.2969 -1
C23.7969 -1 28.9062 2.17188 31.0938 7.98438
C31.2969 3.64062 34.0938 -0.28125 38.5 -0.28125
C40.5938 -0.28125 45.9062 1.09375 45.9062 8.85938
L45.9062 14.375
L44.0938 14.375
L44.0938 8.78125
C44.0938 2.78125 41.4062 2 40.0938 2
C36 2 36 7.15625 36 11.5312
z

M30.7031 13.5938
C30.7031 4.95312 24.5 0.59375 19 0.59375
C14 0.59375 10.0938 4.29688 10.0938 8.90625
C10.0938 11.8906 11.4062 17.1875 17.2031 20.3906
C22 23.0938 27.5 23.5 30.7031 23.5
z
" id="CMR17-97"/>
     </defs>
     <g transform="translate(750.889710096 511.143712922)scale(0.36 -0.36)">
      <use transform="scale(0.9962640099626402)" xlink:href="#CMR17-97"/>
      <use transform="translate(45.69047711706103 0.0)scale(0.9962640099626402)" xlink:href="#CMR17-98"/>
      <use transform="translate(96.58584689737704 0.0)scale(0.9962640099626402)" xlink:href="#CMR17-115"/>
      <use transform="translate(132.38718453261208 0.0)scale(0.9962640099626402)" xlink:href="#CMR17-111"/>
      <use transform="translate(178.07766164967313 0.0)scale(0.9962640099626402)" xlink:href="#CMR17-114"/>
      <use transform="translate(213.35842944913608 0.0)scale(0.9962640099626402)" xlink:href="#CMR17-112"/>
      <use transform="translate(264.25379922945206 0.0)scale(0.9962640099626402)" xlink:href="#CMR17-116"/>
      <use transform="translate(299.53456702891503 0.0)scale(0.9962640099626402)" xlink:href="#CMR17-105"/>
      <use transform="translate(324.40562551077994 0.0)scale(0.9962640099626402)" xlink:href="#CMR17-111"/>
      <use transform="translate(370.09610262784093 0.0)scale(0.9962640099626402)" xlink:href="#CMR17-110"/>
      <use transform="translate(451.0674387550592 0.0)scale(0.9962640099626402)" xlink:href="#CMMI12-65"/>
     </g>
    </g>
    <g id="line2d_17">
     <path d="
M660.89 548.72
L711.29 548.72" style="fill:none;stroke:#00008b;stroke-linecap:square;stroke-width:2;"/>
    </g>
    <g id="line2d_18"/>
    <g id="text_16">
     <!-- dark field $B$ -->
     <defs>
      <path d="
M26.0938 26.1406
C26 26.3438 25.5 26.9375 25.5 27.2344
C25.5 27.4375 32.5938 33.9219 33.5 34.7188
C39.2031 39.5 42.7969 40 45.4062 40
L45.4062 42.6875
C44.7969 42.6875 44.5938 42.6875 44.5 42.6875
L39.5938 42.6875
C36.7969 42.6875 32.5 42.6875 29.7969 42.6875
L29.7969 40.0938
C31.2031 39.9844 32.2031 39.1875 32.2031 37.7969
C32.2031 35.8125 30.2031 33.9219 30.0938 33.9219
L15 20.1562
L15 68.6875
L3.09375 67.5938
L3.09375 65
C9 65 9.90625 64.4062 9.90625 59.6406
L9.90625 6.65625
C9.90625 2.875 9.5 2.39062 3.09375 2.39062
L3.09375 -0.203125
C5.5 0 9.90625 0 12.4062 0
C14.9062 0 19.2969 0 21.7031 -0.203125
L21.7031 2.39062
C15.2969 2.39062 14.9062 2.78125 14.9062 6.6875
L14.9062 17.6562
L21.7969 23.9375
L31.9062 8.96875
C33.0938 7.17188 34.0938 5.76562 34.0938 4.46875
C34.0938 2.6875 32.2969 2.39062 31.0938 2.39062
L31.0938 -0.203125
C33.5 0 37.7969 0 40.2969 0
C42.0938 0 45.7969 0 47.5 0
L47.5 2.39062
C42.7969 2.39062 41.7031 3.28125 38.7031 7.67188
z
" id="CMR17-107"/>
      <path d="
M36.5938 61.1875
C37.5 64.9062 37.9062 65.1094 41.7969 65.1094
L54.7969 65.1094
C66.0938 65.1094 66.0938 55.4375 66.0938 54.5312
C66.0938 46.375 58 36 44.7969 36
L30.4062 36
z

M53.5 35.2031
C64.4062 37.2188 74.2969 44.8594 74.2969 54.125
C74.2969 61.9688 67.4062 68 56.0938 68
L24 68
C22.0938 68 21.2031 68 21.2031 66.1094
C21.2031 65.1094 22.0938 65.1094 23.5938 65.1094
C29.7031 65.1094 29.7031 64.3125 29.7031 63.2031
C29.7031 63.0156 29.7031 62.4062 29.2969 60.9219
L15.7969 7.375
C14.9062 3.89062 14.7031 2.89062 7.70312 2.89062
C5.79688 2.89062 4.79688 2.89062 4.79688 1.09375
C4.79688 0 5.40625 0 7.40625 0
L41.7031 0
C57 0 68.7969 11.4375 68.7969 21.4062
C68.7969 29.4844 61.5938 34.4219 53.5 35.2031
M39.2969 2.89062
L25.7969 2.89062
C24.4062 2.89062 24.2031 2.89062 23.5938 3
C22.5 3.09375 22.4062 3.29688 22.4062 4.07812
C22.4062 4.76562 22.5938 5.35938 22.7969 6.23438
L29.7969 34
L48.5938 34
C60.4062 34 60.4062 23.1719 60.4062 22.3906
C60.4062 12.9375 51.7031 2.89062 39.2969 2.89062" id="CMMI12-66"/>
      <path d="
M39.9062 43.1875
C37.5 43.1875 30.0938 43.1875 28.2031 42.7969
C27.5938 42.5781 27.4062 42.5781 26.2031 42.5781
L14.7969 42.5781
L14.7969 54.2031
C14.7969 63.6406 22.4062 68 28.4062 68
C30.2969 68 34.5938 67.5 36.7969 64.0781
C35.7969 64.0781 32.5938 64.0781 32.5938 60.5938
C32.5938 58.2031 34.2031 57 36.2031 57
C38 57 39.7969 58 39.7969 60.7031
C39.7969 65.7031 35 69.5938 28.7969 69.5938
C20.9062 69.5938 9.90625 65.125 9.90625 54.2031
L9.90625 42.5781
L1.90625 42.5781
L1.90625 40
L9.90625 40
L9.90625 6.67188
C9.90625 2.875 9.5 2.39062 3.09375 2.39062
L3.09375 -0.203125
C5.5 0 9.90625 0 12.4062 0
C15 0 19.4062 0 21.7969 -0.203125
L21.7969 2.39062
C15.4062 2.39062 15 2.78125 15 6.67188
L15 40
L29.7031 40
C34 40 34.7969 39.0938 34.7969 34.7188
L34.7969 6.67188
C34.7969 2.875 34.4062 2.39062 28 2.39062
L28 -0.203125
C30.4062 0 34.7969 0 37.2969 0
C39.9062 0 44.2969 0 46.7031 -0.203125
L46.7031 2.39062
C40.2969 2.39062 39.9062 2.78125 39.9062 6.64062
z
" id="CMR17-12"/>
      <path d="
M29.2031 67.5938
L29.2031 65
C35.0938 65 36 64.4062 36 59.6875
L36 36.6406
C35.5938 37.1406 31.5 43.5938 23.4062 43.5938
C13.2031 43.5938 3.29688 34.5 3.29688 21.3125
C3.29688 8.20312 12.5938 -1 22.4062 -1
C30.9062 -1 35.2969 5.26562 35.7969 5.9375
L35.7969 -0.984375
L47.9062 -0.984375
L47.9062 2
C42 2 41.0938 2.59375 41.0938 7.39062
L41.0938 68.6875
z

M35.7969 11.7969
C35.7969 8.79688 34 6.09375 31.7031 4.09375
C28.2969 1.09375 24.9062 0.59375 23 0.59375
C20.0938 0.59375 9.70312 2.09375 9.70312 21.1875
C9.70312 40.8125 21.2969 42 23.9062 42
C28.5 42 32.2031 39.4062 34.5 35.7969
C35.7969 33.7031 35.7969 33.4062 35.7969 31.6094
z
" id="CMR17-100"/>
     </defs>
     <g transform="translate(750.889710096 561.319856461)scale(0.36 -0.36)">
      <use transform="scale(0.9962640099626402)" xlink:href="#CMR17-100"/>
      <use transform="translate(50.89536978031601 0.0)scale(0.9962640099626402)" xlink:href="#CMR17-97"/>
      <use transform="translate(96.58584689737704 0.0)scale(0.9962640099626402)" xlink:href="#CMR17-114"/>
      <use transform="translate(131.86661469683997 0.0)scale(0.9962640099626402)" xlink:href="#CMR17-107"/>
      <use transform="translate(210.23549689153955 0.0)scale(0.9962640099626402)" xlink:href="#CMR17-12"/>
      <use transform="translate(259.97772026774595 0.0)scale(0.9962640099626402)" xlink:href="#CMR17-101"/>
      <use transform="translate(300.46338073046394 0.0)scale(0.9962640099626402)" xlink:href="#CMR17-108"/>
      <use transform="translate(325.3344392123288 0.0)scale(0.9962640099626402)" xlink:href="#CMR17-100"/>
      <use transform="translate(406.30577533954704 0.0)scale(0.9962640099626402)" xlink:href="#CMMI12-66"/>
     </g>
    </g>
   </g>
  </g>
 </g>
 <defs>
  <clipPath id="p048f99bc99">
   <rect height="533.952" width="837.0" x="135.0" y="66.744"/>
  </clipPath>
 </defs>
</svg>
